<svg width="100" height="100" fill="none" xmlns="http://www.w3.org/2000/svg"><path fill="#fff" d="M5.6 9.6h87.6V86H5.6z"/><path fill-rule="evenodd" clip-rule="evenodd" d="M0 24C0 10.745 10.745 0 24 0h52c13.255 0 24 10.745 24 24v52c0 13.255-10.745 24-24 24H24C10.745 100 0 89.255 0 76V24zm21.591 27.056a1.057 1.057 0 012.113 0v30.288a1.057 1.057 0 01-2.113 0V51.056zm5.987 1.761c-.583 0-1.056.473-1.056 1.057v24.652a1.057 1.057 0 102.113 0V53.874c0-.584-.473-1.057-1.057-1.057zm4.93 2.818c-.583 0-1.056.473-1.056 1.056V75.71a1.057 1.057 0 002.113 0V56.69c0-.583-.473-1.056-1.056-1.056zm4.931 3.521c-.583 0-1.056.474-1.056 1.057v11.974a1.057 1.057 0 102.113 0V60.213c0-.583-.473-1.057-1.057-1.057zM16.661 58.1a1.056 1.056 0 112.113 0v15.496a1.056 1.056 0 11-2.113 0V58.1zm25.709-.352c-.584 0-1.057.473-1.057 1.056v14.792a1.056 1.056 0 102.113 0V58.804c0-.583-.473-1.056-1.056-1.056zm-30.64 8.1a1.057 1.057 0 112.114 0v.704a1.057 1.057 0 11-2.114 0v-.704zM47.3 61.27c-.584 0-1.056.472-1.056 1.056v8.452a1.056 1.056 0 002.112 0v-8.452c0-.584-.472-1.056-1.056-1.056zm3.874-.353a1.056 1.056 0 012.113 0v10.566a1.056 1.056 0 01-2.113 0V60.917zm5.987 2.466c-.584 0-1.057.473-1.057 1.056v4.226a1.056 1.056 0 102.113 0V64.44c0-.583-.473-1.056-1.056-1.056zm8.804 1.056a1.056 1.056 0 012.113 0v4.226a1.057 1.057 0 01-2.113 0V64.44zm-3.874.352c-.583 0-1.056.473-1.056 1.057v2.113a1.056 1.056 0 002.113 0v-2.113c0-.584-.473-1.057-1.057-1.057zm8.805 1.057a1.057 1.057 0 112.113 0v2.113a1.057 1.057 0 01-2.113 0v-2.113zm-63.04-1.761c-.583 0-1.056.473-1.056 1.057v2.112a1.057 1.057 0 102.113 0v-2.112c0-.584-.473-1.057-1.056-1.057zm48.928-48.951c-.224-.512-.576-.736-1.12-.736H50.96c-.608 0-.96.32-.96.96v20.48c0 .608.352.96.96.96h3.584c.64 0 .96-.352.96-.96V25.504c0-.32.256-.384.384-.096l4.352 10.656c.224.512.576.736 1.12.736h4.704c.64 0 .96-.352.96-.96V15.36c0-.64-.32-.96-.96-.96H62.48c-.608 0-.96.32-.96.96v10.336c0 .32-.256.384-.384.096l-4.352-10.656zm27.003 13.216c-.128.096-.16.256-.096.416l3.392 6.304c.448.832-.064 1.728-1.056 1.728h-3.648c-.32 0-.608-.16-.736-.448l-3.328-6.432c-.064-.096-.16-.16-.256-.16h-1.28c-.576 0-.992.416-.992.992v5.056c0 .576-.416.992-.992.992H71.21c-.576 0-.992-.416-.992-.992V15.392c0-.576.416-.992.992-.992h7.008c5.696 0 8 2.432 8 7.68 0 2.976-.736 5.056-2.432 6.272zm-3.072-6.272c0-1.984-.768-2.176-2.304-2.176h-1.632c-.576 0-.992.416-.992.992v2.368c0 .576.416.992.992.992h1.632c1.536 0 2.304-.192 2.304-2.176z" fill="url(#paint0_linear)"/><defs><linearGradient id="paint0_linear" x1="0" y1="50" x2="100" y2="50" gradientUnits="userSpaceOnUse"><stop stop-color="#1488CC"/><stop offset="1" stop-color="#2B32B2"/></linearGradient></defs></svg>